<svg xmlns="http://www.w3.org/2000/svg" width="3158" height="1148" viewBox="0 0 3158 1148">
  <defs>
    <style>
      .cls-1, .cls-2 {
        fill-rule: evenodd;
      }

      .cls-2 {
        fill: #cf5b5b;
      }
    </style>
  </defs>
  <path id="mart" class="cls-1" d="M1178.38,1040.75h62.66V834.41q0-91.308,18.13-135.62t55.95-70.495q37.815-26.184,81.23-26.184,37.605,0,64.9,19.022a100.289,100.289,0,0,1,38.27,50.578q10.965,31.556,10.97,119.731V1040.75h62.66V850.076q0-104.736,17.39-149.495t55.1-71.615q37.71-26.856,83.2-26.855,37.47,0,64.46,17.9t38.15,47.221q11.145,29.321,11.15,107.646V1040.75h64.01V774.881q0-91.309-18.76-136.963t-57.38-71.167q-38.625-25.514-89.08-25.513-54.03,0-100.92,29.765t-78.14,87.057q-14.79-42.969-34.95-66.02t-51.98-36.926a166.444,166.444,0,0,0-67.21-13.876q-52.44,0-99.94,28.646-34.5,21.485-67.21,68.034V553.771h-62.66V1040.75ZM2462.07,553.771v89.518q-36.705-51.025-85.27-76.538t-108.54-25.513q-103.845,0-177.69,74.748-73.86,74.754-73.86,179.932,0,107.421,73.19,182.393,73.17,74.968,176.57,74.969,58.185,0,107.2-24.17t88.4-72.06v83.7h61.77V553.771h-61.77Zm-51.64,104.673q55.665,56.786,55.67,141.278,0,55.442-24.82,99.7t-70.86,70.188q-46.05,25.932-97.46,25.932a185.155,185.155,0,0,1-95.46-26.156q-44.475-26.152-70.85-73.1t-26.38-98.358q0-51.855,26.15-98.351t70.42-72.209q44.265-25.7,96.57-25.709Q2354.77,601.663,2410.43,658.444ZM2641.1,1040.75h64.01V876.036q0-126.66,11.64-168.294,15.21-54.151,44.31-79.895,29.085-25.732,60.42-25.736,13.44,0,33.13,8.5l32.67-52.816q-29.535-16.554-55.5-16.561-34.47,0-66.25,20.813t-60.42,62.887V553.771H2641.1V1040.75Zm354.05-486.979h-85.49v54.158h85.49V1040.75h62.66V607.929h99.37V553.771h-99.37V372.944h-62.66V553.771Z"/>
  <path id="U" class="cls-2" d="M1164.86,1.75q-24.495,0-42.44,26.063A1052.368,1052.368,0,0,0,1049,154.047q-143.2,292.383-235.969,452Q679.578,834.094,535.562,1003.47q-32.554,38.295-74.859,38.28-43.945,0-72.406-39.11Q356.563,960.289,359,888.594q5.672-140.133,69.156-360.922,72.4-252.54,170.844-413.86,76.5-16.288,76.515-33.406,0-7.312-9.765-16.3Q599-.25,563.187-0.25q-31.734,0-70.8,61.078Q251.476,134.937,92.781,177.281-0.008,205.805,0,273.391q0,49.688,69.109,167.765,17.062,29.32,40.656,29.313,13.828,0,13.829-14.657a42.488,42.488,0,0,0-.813-8.156Q100,359.719,100,360.531q0-33.375,43.922-65.156Q236.664,229.422,462,155.3,381.587,314.93,319.859,509.562,257.3,707.469,250.812,827.984,249.993,849.969,250,868.7q0,83.883,30.922,126.234,15.468,21.184,100.094,87.953,35.788,48.84,88.7,48.86,52.077,0,99.265-53.72Q723.6,902.227,901,578.25q-73.407,271.875-97.031,448.5a136.66,136.66,0,0,1-5.3,23.61Q794.993,1061.745,795,1065q0,9.8,34.281,38.27,53.859,44.475,82.438,44.48,26.929,0,34.281-44.75,20.343-115.545,73.25-231.938,6.51-13.827,6.52-24.406,0-18.7-13.83-18.719-12.24,0-22.8,16.282-13.032,18.726-26.047,37.422Q948.421,902.829,936,937.8q60.234-432.915,232-758.438,37.545-71.6,74.31-71.609,6.525,0,19.19,2.5t19.19,2.5q25.3,0,25.31-17.141c0-3.812-2.19-7.609-6.53-11.422Q1204.01,1.758,1164.86,1.75h0Z"/>
</svg>
